<?xml version="1.0" encoding="utf-8"?>
<svg width="32" height="32" viewBox="0 0 32 32" fill="none" xmlns="http://www.w3.org/2000/svg">
<g clip-path="url(#clip0_858_3444)">
<mask id="mask0_858_3444" style="mask-type:luminance" maskUnits="userSpaceOnUse" x="0" y="0" width="32" height="32">
<path d="M32 0H0V32H32V0Z" fill="white" style="fill:white;fill:white;fill-opacity:1;"/>
</mask>
<g mask="url(#mask0_858_3444)">
<path d="M16 0C7.16352 0 0 7.16353 0 16C0 23.4867 5.14175 29.7721 12.0867 31.5181V21.2311H8.63326V16.3062H12.0867V14.0585C12.0867 8.45954 14.4774 5.92576 19.9539 5.92576C20.9961 5.92576 22.7943 6.13023 23.5299 6.33439V10.8096C23.1213 10.7891 22.222 10.7482 21.6499 10.7482C19.0547 10.7482 17.9104 11.688 17.9104 14.3856V16.3065H23.3459L22.4774 21.2313H17.9104V31.8925C25.8464 30.9481 31.9996 24.1903 31.9996 16.0003C32 7.16353 24.8365 0 16 0Z" fill="#0866FF" style="fill:#0866FF;fill:color(display-p3 0.0314 0.4000 1.0000);fill-opacity:1;"/>
<path d="M21.6484 10.7483C22.2205 10.7483 23.1197 10.7893 23.5283 10.8098V6.33457C22.7927 6.13009 20.9946 5.92593 19.9523 5.92593C14.4758 5.92593 12.0851 8.45969 12.0851 14.0588V16.3064H8.63171V21.2312H12.0851V31.5179C12.0851 31.5179 12.0861 31.5179 12.0864 31.5182C13.3482 31.8328 14.6688 32.0002 16.0288 32.0002C16.665 32.0002 17.2922 31.9634 17.9088 31.8923V21.2312H22.4759L23.3444 16.3064H17.9088V14.3855C17.9088 11.6881 19.0531 10.7483 21.6484 10.7483Z" fill="white" style="fill:white;fill:white;fill-opacity:1;"/>
</g>
</g>
<defs>
<clipPath id="clip0_858_3444">
<rect width="32" height="32" fill="white" style="fill:white;fill:white;fill-opacity:1;"/>
</clipPath>
</defs>
</svg>
